<?xml version="1.0" encoding="UTF-8" standalone="no"?>
<!DOCTYPE svg PUBLIC "-//W3C//DTD SVG 1.1//EN"
 "http://www.w3.org/Graphics/SVG/1.1/DTD/svg11.dtd">
<!-- Generated by graphviz version 2.40.1 (20161225.0304)
 -->
<!-- Title: eventLoop Pages: 1 -->
<svg width="1679pt" height="1307pt"
 viewBox="0.00 0.00 1679.04 1307.21" xmlns="http://www.w3.org/2000/svg" xmlns:xlink="http://www.w3.org/1999/xlink">
<g id="graph0" class="graph" transform="scale(1 1) rotate(0) translate(4 1303.2093)">
<title>eventLoop</title>
<polygon fill="#ffffff" stroke="transparent" points="-4,4 -4,-1303.2093 1675.0439,-1303.2093 1675.0439,4 -4,4"/>
<text text-anchor="middle" x="835.5219" y="-32" font-family="Times,serif" font-size="20.00" fill="#000000">Node.JS Event Loop</text>
<text text-anchor="middle" x="835.5219" y="-10" font-family="Times,serif" font-size="20.00" fill="#000000">From https://nodejs.org/en/docs/guides/event&#45;loop&#45;timers&#45;and&#45;nexttick/</text>
<!-- timers -->
<g id="node1" class="node">
<title>timers</title>
<text text-anchor="middle" x="1154.596" y="-1279.2093" font-family="Times,serif" font-size="20.00" fill="#000000">1.0: Timers</text>
<text text-anchor="middle" x="1154.596" y="-1257.2093" font-family="Times,serif" font-size="20.00" fill="#000000">Execute setTimeout(), setInterval() callbacks</text>
</g>
<!-- pending -->
<g id="node2" class="node">
<title>pending</title>
<text text-anchor="middle" x="1494.5439" y="-706.9541" font-family="Times,serif" font-size="20.00" fill="#000000">2.0: Pending callbacks</text>
<text text-anchor="middle" x="1494.5439" y="-684.9541" font-family="Times,serif" font-size="20.00" fill="#000000">I/O callbacks deferred to the next iteration</text>
<text text-anchor="middle" x="1494.5439" y="-662.9541" font-family="Times,serif" font-size="20.00" fill="#000000">e.g. ECONNREFUSED on TCP connect</text>
</g>
<!-- timers&#45;&gt;pending -->
<g id="edge1" class="edge">
<title>timers&#45;&gt;pending</title>
<path fill="none" stroke="#000000" d="M1169.8633,-1247.0149C1222.9365,-1155.9563 1399.857,-852.4103 1467.7238,-735.9699"/>
<polygon fill="#000000" stroke="#000000" points="1470.7901,-737.6595 1472.8018,-727.2574 1464.7423,-734.1345 1470.7901,-737.6595"/>
</g>
<!-- idle -->
<g id="node4" class="node">
<title>idle</title>
<text text-anchor="middle" x="1159.054" y="-109.005" font-family="Times,serif" font-size="20.00" fill="#000000">3.0: Idle/Prepare</text>
<text text-anchor="middle" x="1159.054" y="-87.005" font-family="Times,serif" font-size="20.00" fill="#000000">Node.JS internal use only</text>
</g>
<!-- pending&#45;&gt;idle -->
<g id="edge2" class="edge">
<title>pending&#45;&gt;idle</title>
<path fill="none" stroke="#000000" d="M1473.303,-652.7925C1412.482,-546.3845 1238.2416,-241.546 1179.028,-137.9501"/>
<polygon fill="#000000" stroke="#000000" points="1181.9883,-136.0761 1173.9872,-129.1311 1175.911,-139.5498 1181.9883,-136.0761"/>
</g>
<!--   -->
<g id="node3" class="node">
<title> </title>
<text text-anchor="middle" x="915" y="-509" font-family="Times,serif" font-size="20.00" fill="#000000"> </text>
</g>
<!-- poll -->
<g id="node5" class="node">
<title>poll</title>
<text text-anchor="middle" x="482.7754" y="-128" font-family="Times,serif" font-size="20.00" fill="#000000">4.0: Poll</text>
<text text-anchor="middle" x="482.7754" y="-106" font-family="Times,serif" font-size="20.00" fill="#000000">Retrieve I/O events, execute I/O callbacks</text>
<text text-anchor="middle" x="482.7754" y="-84" font-family="Times,serif" font-size="20.00" fill="#000000">except close, timers, setImmediate()</text>
<text text-anchor="middle" x="482.7754" y="-62" font-family="Times,serif" font-size="20.00" fill="#000000">wait for timers</text>
</g>
<!-- idle&#45;&gt;poll -->
<g id="edge3" class="edge">
<title>idle&#45;&gt;poll</title>
<path fill="none" stroke="#000000" d="M1048.893,-102.5155C946.323,-102.0597 791.3673,-101.3712 669.4895,-100.8296"/>
<polygon fill="#000000" stroke="#000000" points="669.3065,-97.3289 659.291,-100.7843 669.2753,-104.3288 669.3065,-97.3289"/>
</g>
<!-- check -->
<g id="node6" class="node">
<title>check</title>
<text text-anchor="middle" x="142.5" y="-690.755" font-family="Times,serif" font-size="20.00" fill="#000000">5.0: Check</text>
<text text-anchor="middle" x="142.5" y="-668.755" font-family="Times,serif" font-size="20.00" fill="#000000">Execute setImmediate() callbacks</text>
</g>
<!-- poll&#45;&gt;check -->
<g id="edge4" class="edge">
<title>poll&#45;&gt;check</title>
<path fill="none" stroke="#000000" d="M454.6397,-148.3505C387.8576,-263.1138 221.0354,-549.7939 162.8811,-649.7305"/>
<polygon fill="#000000" stroke="#000000" points="159.7632,-648.1297 157.7587,-658.5332 165.8134,-651.6504 159.7632,-648.1297"/>
</g>
<!-- close -->
<g id="node7" class="node">
<title>close</title>
<text text-anchor="middle" x="479.2239" y="-1276.3767" font-family="Times,serif" font-size="20.00" fill="#000000">6.0: Close callbacks</text>
<text text-anchor="middle" x="479.2239" y="-1254.3767" font-family="Times,serif" font-size="20.00" fill="#000000">Execute close callbacks</text>
</g>
<!-- check&#45;&gt;close -->
<g id="edge5" class="edge">
<title>check&#45;&gt;close</title>
<path fill="none" stroke="#000000" d="M157.6225,-711.0557C211.9616,-805.5609 397.3701,-1128.0187 459.0698,-1235.3252"/>
<polygon fill="#000000" stroke="#000000" points="456.1242,-1237.224 464.1431,-1244.1485 462.1926,-1233.7348 456.1242,-1237.224"/>
</g>
<!-- close&#45;&gt;timers -->
<g id="edge6" class="edge">
<title>close&#45;&gt;timers</title>
<path fill="none" stroke="#000000" d="M581.7984,-1270.8069C681.0398,-1271.2231 834.0649,-1271.8649 956.9897,-1272.3805"/>
<polygon fill="#000000" stroke="#000000" points="957.269,-1275.8816 967.2836,-1272.4237 957.2984,-1268.8816 957.269,-1275.8816"/>
</g>
<!-- nextTickQueue -->
<g id="node8" class="node">
<title>nextTickQueue</title>
<text text-anchor="middle" x="817.9718" y="-680.5509" font-family="Times,serif" font-size="20.00" fill="#000000">nextTickQueue</text>
</g>
<!-- nextTickQueue&#45;&gt;timers -->
<g id="edge7" class="edge">
<title>nextTickQueue&#45;&gt;timers</title>
<path fill="none" stroke="#000000" stroke-dasharray="1,5" d="M833.4312,-712.539C888.2034,-808.1568 1073.0185,-1130.796 1134.5096,-1238.1435"/>
<polygon fill="#000000" stroke="#000000" points="836.4231,-710.7203 828.4155,-703.7827 830.349,-714.1996 836.4231,-710.7203"/>
<polygon fill="#000000" stroke="#000000" points="1131.558,-1240.0325 1139.5656,-1246.97 1137.6321,-1236.5531 1131.558,-1240.0325"/>
<text text-anchor="middle" x="1119.0656" y="-1230.97" font-family="Times,serif" font-size="20.00" fill="#000000">1.2 &#160;&#160;</text>
<text text-anchor="middle" x="815.9155" y="-709.7827" font-family="Times,serif" font-size="20.00" fill="#000000">1.1</text>
</g>
<!-- nextTickQueue&#45;&gt;pending -->
<g id="edge8" class="edge">
<title>nextTickQueue&#45;&gt;pending</title>
<path fill="none" stroke="#000000" stroke-dasharray="1,5" d="M897.4924,-686.0684C997.6685,-686.7204 1173.0069,-687.8615 1307.841,-688.739"/>
<polygon fill="#000000" stroke="#000000" points="897.22,-682.5667 887.1974,-686.0014 897.1744,-689.5665 897.22,-682.5667"/>
<polygon fill="#000000" stroke="#000000" points="1307.8631,-692.2391 1317.8857,-688.8044 1307.9087,-685.2393 1307.8631,-692.2391"/>
<text text-anchor="middle" x="1297.3857" y="-694.8044" font-family="Times,serif" font-size="20.00" fill="#000000">2.2 &#160;&#160;</text>
<text text-anchor="middle" x="910.1974" y="-692.0014" font-family="Times,serif" font-size="20.00" fill="#000000"> &#160;&#160;&#160;2.1</text>
</g>
<!-- nextTickQueue&#45;&gt;idle -->
<g id="edge9" class="edge">
<title>nextTickQueue&#45;&gt;idle</title>
<path fill="none" stroke="#000000" stroke-dasharray="1,5" d="M833.636,-658.7976C889.1334,-564.0115 1076.3961,-244.1793 1138.7015,-137.7657"/>
<polygon fill="#000000" stroke="#000000" points="830.5861,-657.0795 828.5538,-667.4776 836.6269,-660.6164 830.5861,-657.0795"/>
<polygon fill="#000000" stroke="#000000" points="1141.7921,-139.414 1143.8245,-129.0159 1135.7514,-135.8771 1141.7921,-139.414"/>
<text text-anchor="middle" x="1123.3245" y="-135.0159" font-family="Times,serif" font-size="20.00" fill="#000000">3.2 &#160;&#160;</text>
<text text-anchor="middle" x="841.0538" y="-651.4776" font-family="Times,serif" font-size="20.00" fill="#000000">3.1</text>
</g>
<!-- nextTickQueue&#45;&gt;poll -->
<g id="edge10" class="edge">
<title>nextTickQueue&#45;&gt;poll</title>
<path fill="none" stroke="#000000" stroke-dasharray="1,5" d="M802.4475,-658.4315C751.1429,-568.8082 586.2914,-280.831 515.536,-157.2292"/>
<polygon fill="#000000" stroke="#000000" points="799.5669,-660.4446 807.5725,-667.3844 805.6419,-656.9669 799.5669,-660.4446"/>
<polygon fill="#000000" stroke="#000000" points="518.4097,-155.204 510.4041,-148.2642 512.3346,-158.6817 518.4097,-155.204"/>
<text text-anchor="middle" x="497.9041" y="-154.2642" font-family="Times,serif" font-size="20.00" fill="#000000">4.2</text>
<text text-anchor="middle" x="784.5725" y="-651.3844" font-family="Times,serif" font-size="20.00" fill="#000000">4.1 &#160;&#160;&#160;</text>
</g>
<!-- nextTickQueue&#45;&gt;check -->
<g id="edge11" class="edge">
<title>nextTickQueue&#45;&gt;check</title>
<path fill="none" stroke="#000000" stroke-dasharray="1,5" d="M738.7214,-685.4575C630.2411,-685.3297 433.2887,-685.0976 295.5369,-684.9353"/>
<polygon fill="#000000" stroke="#000000" points="738.8547,-688.9576 748.8589,-685.4694 738.863,-681.9576 738.8547,-688.9576"/>
<polygon fill="#000000" stroke="#000000" points="295.3129,-681.4352 285.3087,-684.9233 295.3045,-688.4352 295.3129,-681.4352"/>
<text text-anchor="middle" x="308.3087" y="-690.9233" font-family="Times,serif" font-size="20.00" fill="#000000"> &#160;&#160;&#160;5.2</text>
<text text-anchor="middle" x="725.8589" y="-691.4694" font-family="Times,serif" font-size="20.00" fill="#000000">5.1 &#160;&#160;&#160;</text>
</g>
<!-- nextTickQueue&#45;&gt;close -->
<g id="edge12" class="edge">
<title>nextTickQueue&#45;&gt;close</title>
<path fill="none" stroke="#000000" stroke-dasharray="1,5" d="M802.4149,-712.4089C747.2973,-807.5659 561.3162,-1128.6499 499.4371,-1235.4799"/>
<polygon fill="#000000" stroke="#000000" points="805.4787,-714.1023 807.4623,-703.6948 799.4215,-710.5938 805.4787,-714.1023"/>
<polygon fill="#000000" stroke="#000000" points="496.3328,-1233.8564 494.3492,-1244.2639 502.39,-1237.365 496.3328,-1233.8564"/>
<text text-anchor="middle" x="481.8492" y="-1228.2639" font-family="Times,serif" font-size="20.00" fill="#000000">6.2</text>
<text text-anchor="middle" x="789.4623" y="-709.6948" font-family="Times,serif" font-size="20.00" fill="#000000">6.1 &#160;</text>
</g>
</g>
</svg>
