<?xml version="1.0" encoding="UTF-8" standalone="no"?>
<!DOCTYPE svg PUBLIC "-//W3C//DTD SVG 1.1//EN"
 "http://www.w3.org/Graphics/SVG/1.1/DTD/svg11.dtd">
<!-- Generated by graphviz version 2.40.1 (20161225.0304)
 -->
<!-- Title: eventLoop Pages: 1 -->
<svg width="654pt" height="564pt"
 viewBox="0.00 0.00 654.36 563.91" xmlns="http://www.w3.org/2000/svg" xmlns:xlink="http://www.w3.org/1999/xlink">
<g id="graph0" class="graph" transform="scale(1 1) rotate(0) translate(4 559.905)">
<title>eventLoop</title>
<polygon fill="#ffffff" stroke="transparent" points="-4,4 -4,-559.905 650.3628,-559.905 650.3628,4 -4,4"/>
<text text-anchor="middle" x="323.1814" y="-22.8" font-family="Times,serif" font-size="14.00" fill="#000000">Node.JS Event Loop</text>
<text text-anchor="middle" x="323.1814" y="-7.8" font-family="Times,serif" font-size="14.00" fill="#000000">From https://nodejs.org/en/docs/guides/event&#45;loop&#45;timers&#45;and&#45;nexttick/</text>
<!-- 1.0 Timers -->
<g id="node1" class="node">
<title>1.0 Timers</title>
<text text-anchor="middle" x="451.7265" y="-534.205" font-family="Times,serif" font-size="14.00" fill="#000000">1.0 Timers</text>
</g>
<!-- 2.0 I/O callbacks -->
<g id="node2" class="node">
<title>2.0 I/O callbacks</title>
<text text-anchor="middle" x="591.3628" y="-294.6283" font-family="Times,serif" font-size="14.00" fill="#000000">2.0 I/O callbacks</text>
</g>
<!-- 1.0 Timers&#45;&gt;2.0 I/O callbacks -->
<g id="edge1" class="edge">
<title>1.0 Timers&#45;&gt;2.0 I/O callbacks</title>
<path fill="none" stroke="#000000" d="M462.2219,-519.8978C486.5328,-478.1871 546.8201,-374.7511 575.5931,-325.3846"/>
<polygon fill="#000000" stroke="#000000" points="578.7338,-326.9466 580.7456,-316.5445 572.6861,-323.4216 578.7338,-326.9466"/>
</g>
<!-- 3.0 Idle/Prepare -->
<g id="node3" class="node">
<title>3.0 Idle/Prepare</title>
<text text-anchor="middle" x="453.5576" y="-53.5343" font-family="Times,serif" font-size="14.00" fill="#000000">3.0 Idle/Prepare</text>
</g>
<!-- 2.0 I/O callbacks&#45;&gt;3.0 Idle/Prepare -->
<g id="edge2" class="edge">
<title>2.0 I/O callbacks&#45;&gt;3.0 Idle/Prepare</title>
<path fill="none" stroke="#000000" d="M581.005,-280.2071C556.9541,-238.1293 497.2243,-133.6304 468.9122,-84.0976"/>
<polygon fill="#000000" stroke="#000000" points="471.8487,-82.182 463.8476,-75.237 465.7714,-85.6557 471.8487,-82.182"/>
</g>
<!-- 4.0 Poll -->
<g id="node4" class="node">
<title>4.0 Poll</title>
<text text-anchor="middle" x="175.7708" y="-52.3" font-family="Times,serif" font-size="14.00" fill="#000000">4.0 Poll</text>
</g>
<!-- 3.0 Idle/Prepare&#45;&gt;4.0 Poll -->
<g id="edge3" class="edge">
<title>3.0 Idle/Prepare&#45;&gt;4.0 Poll</title>
<path fill="none" stroke="#000000" d="M401.308,-57.0021C347.4253,-56.7627 264.5763,-56.3946 215.7139,-56.1775"/>
<polygon fill="#000000" stroke="#000000" points="215.5473,-52.6768 205.5318,-56.1322 215.5161,-59.6767 215.5473,-52.6768"/>
</g>
<!-- 5.0 Check -->
<g id="node5" class="node">
<title>5.0 Check</title>
<text text-anchor="middle" x="36" y="-292.4928" font-family="Times,serif" font-size="14.00" fill="#000000">5.0 Check</text>
</g>
<!-- 4.0 Poll&#45;&gt;5.0 Check -->
<g id="edge4" class="edge">
<title>4.0 Poll&#45;&gt;5.0 Check</title>
<path fill="none" stroke="#000000" d="M165.2653,-74.0535C140.9309,-115.8715 80.5856,-219.5735 51.7848,-269.0669"/>
<polygon fill="#000000" stroke="#000000" points="48.6319,-267.5263 46.6274,-277.9298 54.6821,-271.047 48.6319,-267.5263"/>
</g>
<!-- 6.0 Close callbacks -->
<g id="node6" class="node">
<title>6.0 Close callbacks</title>
<text text-anchor="middle" x="174.312" y="-533.0415" font-family="Times,serif" font-size="14.00" fill="#000000">6.0 Close callbacks</text>
</g>
<!-- 5.0 Check&#45;&gt;6.0 Close callbacks -->
<g id="edge5" class="edge">
<title>5.0 Check&#45;&gt;6.0 Close callbacks</title>
<path fill="none" stroke="#000000" d="M46.3959,-314.273C70.4762,-356.153 130.1918,-460.0087 158.6919,-509.5755"/>
<polygon fill="#000000" stroke="#000000" points="155.7766,-511.527 163.7955,-518.4515 161.845,-508.0377 155.7766,-511.527"/>
</g>
<!-- 6.0 Close callbacks&#45;&gt;1.0 Timers -->
<g id="edge6" class="edge">
<title>6.0 Close callbacks&#45;&gt;1.0 Timers</title>
<path fill="none" stroke="#000000" d="M235.5352,-536.9983C285.8234,-537.2092 356.1178,-537.504 402.7341,-537.6995"/>
<polygon fill="#000000" stroke="#000000" points="402.871,-541.2001 412.8857,-537.7421 402.9005,-534.2001 402.871,-541.2001"/>
</g>
<!-- nextTickQueue -->
<g id="node7" class="node">
<title>nextTickQueue</title>
<text text-anchor="middle" x="313.4554" y="-292.8197" font-family="Times,serif" font-size="14.00" fill="#000000">nextTickQueue</text>
</g>
<!-- nextTickQueue&#45;&gt;1.0 Timers -->
<g id="edge7" class="edge">
<title>nextTickQueue&#45;&gt;1.0 Timers</title>
<path fill="none" stroke="#000000" stroke-dasharray="1,5" d="M328.9422,-323.5556C355.5745,-370.0486 409.7425,-464.612 436.3196,-511.0086"/>
<polygon fill="#000000" stroke="#000000" points="331.8558,-321.6003 323.8482,-314.6628 325.7818,-325.0797 331.8558,-321.6003"/>
<polygon fill="#000000" stroke="#000000" points="433.3941,-512.9431 441.4017,-519.8806 439.4682,-509.4637 433.3941,-512.9431"/>
<text text-anchor="middle" x="426.9017" y="-508.6806" font-family="Times,serif" font-size="14.00" fill="#000000">1.2 &#160;&#160;</text>
<text text-anchor="middle" x="314.8482" y="-318.4628" font-family="Times,serif" font-size="14.00" fill="#000000">1.1</text>
</g>
<!-- nextTickQueue&#45;&gt;2.0 I/O callbacks -->
<g id="edge8" class="edge">
<title>nextTickQueue&#45;&gt;2.0 I/O callbacks</title>
<path fill="none" stroke="#000000" stroke-dasharray="1,5" d="M373.7632,-296.9122C418.6279,-297.2041 479.8011,-297.6023 525.862,-297.902"/>
<polygon fill="#000000" stroke="#000000" points="373.4833,-293.4104 363.4607,-296.8451 373.4376,-300.4102 373.4833,-293.4104"/>
<polygon fill="#000000" stroke="#000000" points="526.0172,-301.403 536.0398,-297.9683 526.0629,-294.4032 526.0172,-301.403"/>
<text text-anchor="middle" x="521.5398" y="-301.7683" font-family="Times,serif" font-size="14.00" fill="#000000">2.2 &#160;&#160;</text>
<text text-anchor="middle" x="379.9607" y="-300.6451" font-family="Times,serif" font-size="14.00" fill="#000000"> &#160;&#160;&#160;2.1</text>
</g>
<!-- nextTickQueue&#45;&gt;3.0 Idle/Prepare -->
<g id="edge9" class="edge">
<title>nextTickQueue&#45;&gt;3.0 Idle/Prepare</title>
<path fill="none" stroke="#000000" stroke-dasharray="1,5" d="M329.392,-269.301C356.4147,-223.1481 410.9046,-130.0829 437.8032,-84.1418"/>
<polygon fill="#000000" stroke="#000000" points="326.2487,-267.7426 324.2164,-278.1407 332.2895,-271.2795 326.2487,-267.7426"/>
<polygon fill="#000000" stroke="#000000" points="440.9194,-85.7465 442.9518,-75.3484 434.8787,-82.2096 440.9194,-85.7465"/>
<text text-anchor="middle" x="428.4518" y="-79.1484" font-family="Times,serif" font-size="14.00" fill="#000000">3.2 &#160;&#160;</text>
<text text-anchor="middle" x="315.2164" y="-266.9407" font-family="Times,serif" font-size="14.00" fill="#000000">3.1</text>
</g>
<!-- nextTickQueue&#45;&gt;4.0 Poll -->
<g id="edge10" class="edge">
<title>nextTickQueue&#45;&gt;4.0 Poll</title>
<path fill="none" stroke="#000000" stroke-dasharray="1,5" d="M298.0477,-269.6041C271.6025,-223.4072 217.8629,-129.5302 191.3204,-83.1634"/>
<polygon fill="#000000" stroke="#000000" points="295.1011,-271.5018 303.1067,-278.4416 301.1761,-268.0241 295.1011,-271.5018"/>
<polygon fill="#000000" stroke="#000000" points="194.2452,-81.2277 186.2396,-74.2878 188.1702,-84.7053 194.2452,-81.2277"/>
<text text-anchor="middle" x="177.2396" y="-78.0878" font-family="Times,serif" font-size="14.00" fill="#000000">4.2</text>
<text text-anchor="middle" x="286.6067" y="-267.2416" font-family="Times,serif" font-size="14.00" fill="#000000">4.1 &#160;&#160;&#160;</text>
</g>
<!-- nextTickQueue&#45;&gt;5.0 Check -->
<g id="edge11" class="edge">
<title>nextTickQueue&#45;&gt;5.0 Check</title>
<path fill="none" stroke="#000000" stroke-dasharray="1,5" d="M253.205,-296.4487C201.8888,-296.3882 129.2236,-296.3026 82.3501,-296.2474"/>
<polygon fill="#000000" stroke="#000000" points="253.2062,-299.9486 263.2103,-296.4605 253.2145,-292.9486 253.2062,-299.9486"/>
<polygon fill="#000000" stroke="#000000" points="82.1821,-292.7473 72.1779,-296.2354 82.1737,-299.7473 82.1821,-292.7473"/>
<text text-anchor="middle" x="88.6779" y="-300.0354" font-family="Times,serif" font-size="14.00" fill="#000000"> &#160;&#160;&#160;5.2</text>
<text text-anchor="middle" x="246.7103" y="-300.2605" font-family="Times,serif" font-size="14.00" fill="#000000">5.1 &#160;&#160;&#160;</text>
</g>
<!-- nextTickQueue&#45;&gt;6.0 Close callbacks -->
<g id="edge12" class="edge">
<title>nextTickQueue&#45;&gt;6.0 Close callbacks</title>
<path fill="none" stroke="#000000" stroke-dasharray="1,5" d="M297.8845,-323.4019C271.159,-369.5416 216.8501,-463.3024 190.0263,-509.6118"/>
<polygon fill="#000000" stroke="#000000" points="301.0134,-324.9829 302.9971,-314.5754 294.9562,-321.4743 301.0134,-324.9829"/>
<polygon fill="#000000" stroke="#000000" points="186.8754,-508.0688 184.8918,-518.4763 192.9326,-511.5774 186.8754,-508.0688"/>
<text text-anchor="middle" x="175.8918" y="-507.2763" font-family="Times,serif" font-size="14.00" fill="#000000">6.2</text>
<text text-anchor="middle" x="290.4971" y="-318.3754" font-family="Times,serif" font-size="14.00" fill="#000000">6.1 &#160;</text>
</g>
</g>
</svg>
